<svg xmlns="http://www.w3.org/2000/svg" viewBox="0 0 64 64" role="img" aria-labelledby="title desc">
  <title id="title">HereBee compact heart marker</title>
  <desc id="desc">A compact heart-shaped location marker for small app chrome.</desc>
  <path
    d="M32 57S11 39 11 25c0-9 7-15 15-15 3.6 0 6 1.8 6 1.8S34.4 10 38 10c8 0 15 6 15 15 0 14-21 32-21 32Z"
    fill="#ff5a4d"
  />
  <path
    d="M18 24.5c0-5 4.2-8.4 9.2-8.4 2.6 0 4.8 1.1 4.8 1.1s2.2-1.1 4.8-1.1c5 0 9.2 3.4 9.2 8.4"
    fill="none"
    stroke="#ff9278"
    stroke-width="4"
    stroke-linecap="round"
  />
  <circle cx="32" cy="31" r="10" fill="#0e1116" />
  <circle cx="32" cy="31" r="4.3" fill="#ffc63b" />
</svg>
